<svg width="46" height="46" viewBox="0 0 46 46" fill="none" xmlns="http://www.w3.org/2000/svg">
<rect width="46" height="46" rx="22.954" fill="#419FD9"/>
<path fill-rule="evenodd" clip-rule="evenodd" d="M26.7185 31.5353C27.9196 32.0608 28.37 30.9598 28.37 30.9598L31.5479 14.9953C31.5229 13.9193 30.0716 14.5699 30.0716 14.5699L12.2804 21.5513C12.2804 21.5513 11.4296 21.8515 11.5047 22.377C11.5798 22.9025 12.2554 23.1527 12.2554 23.1527L16.7344 24.6541C16.7344 24.6541 18.0857 29.0831 18.3609 29.9339C18.6111 30.7596 18.8364 30.7847 18.8364 30.7847C19.0866 30.8848 19.3118 30.7096 19.3118 30.7096L22.2144 28.0822L26.7185 31.5353ZM27.4947 17.8228C27.4947 17.8228 28.1203 17.4475 28.0953 17.8228C28.0953 17.8228 28.1954 17.8729 27.8701 18.2232C27.5698 18.5235 20.4884 24.8793 19.5375 25.73C19.4624 25.7801 19.4124 25.8551 19.4124 25.9552L19.1371 28.3074C19.0871 28.5576 18.7618 28.5826 18.6867 28.3574L17.5107 24.5039C17.4606 24.3538 17.5107 24.1786 17.6608 24.0785L27.4947 17.8228Z" fill="white"/>
</svg>
