<svg width="47" height="46" viewBox="0 0 47 46" fill="none" xmlns="http://www.w3.org/2000/svg">
<rect x="0.0771484" width="46" height="46" rx="22.954" fill="#0DC143"/>
<path d="M31.3947 14.7169C29.3527 12.6319 26.5299 11.5 23.6471 11.5C17.521 11.5 12.5962 16.4445 12.6563 22.4613C12.6563 24.3676 13.1968 26.2143 14.0977 27.8823L12.5361 33.5417L18.3619 32.0524C19.9835 32.9459 21.7852 33.363 23.587 33.363C29.653 33.363 34.5778 28.4185 34.5778 22.4017C34.5778 19.4827 33.4367 16.7423 31.3947 14.7169ZM23.6471 31.5162C22.0255 31.5162 20.4039 31.0992 19.0225 30.2652L18.6622 30.0865L15.1787 30.9801L16.0796 27.5845L15.8394 27.227C13.1968 22.9974 14.458 17.3976 18.7823 14.7765C23.1065 12.1553 28.692 13.4063 31.3346 17.6955C33.9772 21.9847 32.716 27.5249 28.3917 30.1461C27.0104 31.0396 25.3287 31.5162 23.6471 31.5162ZM28.9322 24.9037L28.2716 24.6059C28.2716 24.6059 27.3107 24.1889 26.7101 23.891C26.65 23.891 26.5899 23.8314 26.5299 23.8314C26.3497 23.8314 26.2296 23.891 26.1095 23.9506C26.1095 23.9506 26.0494 24.0101 25.2086 24.9633C25.1485 25.0824 25.0284 25.142 24.9083 25.142H24.8482C24.7882 25.142 24.6681 25.0824 24.608 25.0229L24.3077 24.9037C23.6471 24.6059 23.0465 24.2484 22.566 23.7718C22.4459 23.6527 22.2657 23.5336 22.1456 23.4144C21.7252 22.9974 21.3048 22.5208 21.0045 21.9847L20.9444 21.8655C20.8843 21.806 20.8843 21.7464 20.8243 21.6273C20.8243 21.5081 20.8243 21.389 20.8843 21.3294C20.8843 21.3294 21.1246 21.0315 21.3048 20.8528C21.4249 20.7337 21.4849 20.555 21.605 20.4358C21.7252 20.2571 21.7852 20.0188 21.7252 19.8401C21.6651 19.5422 20.9444 17.9338 20.7642 17.5764C20.6441 17.3976 20.524 17.3381 20.3438 17.2785H20.1636C20.0435 17.2785 19.8633 17.2785 19.6832 17.2785C19.563 17.2785 19.4429 17.3381 19.3228 17.3381L19.2627 17.3976C19.1426 17.4572 19.0225 17.5764 18.9024 17.6359C18.7823 17.7551 18.7222 17.8742 18.6021 17.9934C18.1817 18.5295 17.9414 19.1848 17.9414 19.8401C17.9414 20.3167 18.0616 20.7932 18.2417 21.2102L18.3018 21.389C18.8423 22.5208 19.563 23.5336 20.524 24.4271L20.7642 24.6654C20.9444 24.8441 21.1246 24.9633 21.2447 25.142C22.5059 26.2143 23.9473 26.9887 25.5689 27.4057C25.7491 27.4653 25.9894 27.4653 26.1695 27.5249C26.3497 27.5249 26.5899 27.5249 26.7701 27.5249C27.0704 27.5249 27.4308 27.4057 27.671 27.2866C27.8512 27.1675 27.9713 27.1675 28.0914 27.0483L28.2115 26.9292C28.3317 26.81 28.4518 26.7505 28.5719 26.6313C28.692 26.5122 28.8121 26.393 28.8722 26.2739C28.9923 26.0356 29.0524 25.7377 29.1124 25.4399C29.1124 25.3207 29.1124 25.142 29.1124 25.0229C29.1124 25.0229 29.0524 24.9633 28.9322 24.9037Z" fill="white"/>
</svg>
