<svg width="47" height="46" viewBox="0 0 47 46" fill="none" xmlns="http://www.w3.org/2000/svg">
<rect x="0.154297" width="46" height="46" rx="22.954" fill="#675DA9"/>
<path d="M31.3727 14.5679C30.8175 14.0575 28.57 12.4233 23.5601 12.4009C23.5601 12.4009 17.6548 12.0428 14.776 14.6843C13.1732 16.2871 12.609 18.6286 12.5508 21.5387C12.4926 24.4444 12.4165 29.8931 17.6682 31.3705H17.6727L17.6682 33.6225C17.6682 33.6225 17.6368 34.5358 18.2368 34.7194C18.9621 34.9433 19.3919 34.2493 20.0858 33.5016C20.4664 33.0897 20.9902 32.4898 21.3887 32.0286C24.9793 32.3286 27.7417 31.6391 28.0551 31.5362C28.7804 31.2989 32.8859 30.775 33.553 25.3264C34.2425 19.721 33.2172 16.1707 31.3727 14.5679ZM31.9815 24.9324C31.4174 29.4812 28.0909 29.7677 27.4776 29.9647C27.2179 30.0498 24.7913 30.6542 21.7379 30.4527C21.7379 30.4527 19.4635 33.1972 18.7561 33.909C18.6442 34.021 18.5144 34.0657 18.4293 34.0433C18.3084 34.012 18.2726 33.8687 18.2771 33.6583C18.2771 33.3539 18.295 29.911 18.295 29.911C18.2905 29.911 18.2905 29.911 18.295 29.911C13.8492 28.6798 14.1089 24.0415 14.1581 21.6149C14.2074 19.1883 14.664 17.1959 16.0206 15.8573C18.4517 13.6545 23.4705 13.9814 23.4705 13.9814C27.7059 13.9993 29.734 15.2753 30.2041 15.7006C31.7666 17.0437 32.5636 20.2449 31.9815 24.9324Z" fill="white"/>
<path d="M25.6243 21.7C25.4765 21.7 25.3512 21.5836 25.3422 21.4314C25.293 20.4688 24.8408 19.9987 23.9185 19.9494C23.7618 19.9405 23.6409 19.8062 23.6499 19.6495C23.6588 19.4928 23.7931 19.3719 23.9498 19.3808C25.1676 19.448 25.8481 20.1464 25.9108 21.4C25.9198 21.5567 25.7989 21.691 25.6422 21.6955C25.6332 21.7 25.6288 21.7 25.6243 21.7Z" fill="white"/>
<path d="M27.0756 22.1835H27.0711C26.9144 22.1791 26.789 22.0492 26.7935 21.8925C26.8159 20.9255 26.5383 20.142 25.9473 19.4973C25.3608 18.8526 24.5505 18.5033 23.4805 18.4272C23.3238 18.4138 23.2074 18.2795 23.2208 18.1228C23.2342 17.9661 23.3685 17.8497 23.5252 17.8631C24.734 17.9527 25.6877 18.3735 26.3682 19.1167C27.0532 19.8644 27.3845 20.8001 27.3621 21.906C27.3576 22.0627 27.2278 22.1835 27.0756 22.1835Z" fill="white"/>
<path d="M28.5614 22.7654C28.4047 22.7654 28.2793 22.64 28.2793 22.4833C28.2659 20.7507 27.7689 19.4299 26.7571 18.4405C25.7587 17.4645 24.4917 16.9675 23.0008 16.9541C22.8441 16.9541 22.7188 16.8243 22.7188 16.6676C22.7188 16.5109 22.8486 16.3855 23.0008 16.3855C24.6439 16.3989 26.0408 16.9496 27.1466 18.0331C28.2569 19.1165 28.8255 20.6119 28.8435 22.4744C28.8479 22.6356 28.7226 22.7654 28.5614 22.7654C28.5659 22.7654 28.5659 22.7654 28.5614 22.7654Z" fill="white"/>
<path d="M23.9858 25.2055C23.9858 25.2055 24.3843 25.2413 24.5992 24.9772L25.0155 24.4534C25.217 24.1937 25.705 24.028 26.1796 24.2922C26.4437 24.4399 26.9228 24.7354 27.2183 24.9548C27.5362 25.1876 28.1809 25.7249 28.1853 25.7293C28.4943 25.989 28.5659 26.3696 28.3555 26.777C28.3555 26.777 28.3555 26.7815 28.3555 26.7859C28.1406 27.1665 27.8496 27.5247 27.4869 27.856C27.4824 27.856 27.4824 27.8605 27.478 27.8605C27.178 28.1112 26.8825 28.2544 26.596 28.2858C26.5601 28.2947 26.5198 28.2947 26.4661 28.2947C26.3408 28.2947 26.2154 28.2768 26.09 28.2365L26.0811 28.2231C25.6334 28.0977 24.8902 27.7843 23.6545 27.0993C22.8486 26.6561 22.1815 26.2039 21.6129 25.7517C21.313 25.5144 21.0085 25.2503 20.6951 24.9369C20.6862 24.9279 20.6727 24.9145 20.6638 24.9056C20.6548 24.8966 20.6414 24.8832 20.6324 24.8742C20.6235 24.8653 20.61 24.8518 20.6011 24.8429C20.5921 24.8339 20.5787 24.8205 20.5698 24.8115C20.2608 24.4981 19.9922 24.1937 19.7549 23.8937C19.3027 23.3296 18.8505 22.658 18.4073 21.8522C17.7223 20.612 17.4089 19.8688 17.2835 19.4256L17.2701 19.4166C17.2298 19.2912 17.2119 19.1659 17.2119 19.0405C17.2119 18.9868 17.2119 18.9465 17.2209 18.9107C17.2567 18.6197 17.4 18.3287 17.6462 18.0287C17.6462 18.0242 17.6507 18.0242 17.6507 18.0197C17.982 17.6526 18.3401 17.3661 18.7207 17.1512C18.7207 17.1512 18.7252 17.1512 18.7297 17.1512C19.1326 16.9408 19.5132 17.0124 19.7773 17.3213C19.7773 17.3213 20.319 17.9705 20.5518 18.2884C20.7712 18.5883 21.0667 19.0629 21.2145 19.3271C21.4786 19.8016 21.313 20.2896 21.0533 20.4911L20.5295 20.9075C20.2653 21.1224 20.3011 21.5208 20.3011 21.5208C20.3011 21.5208 21.0757 24.4668 23.9858 25.2055Z" fill="white"/>
</svg>
